<svg width="256" height="256" viewBox="0 0 256 256" fill="none" xmlns="http://www.w3.org/2000/svg">
  <!-- App icon: the mark on a warm charcoal tile. -->
  <rect width="256" height="256" rx="56" fill="#211E1B"/>
  <rect x="1.5" y="1.5" width="253" height="253" rx="54.5" stroke="#FFF4E6" stroke-opacity="0.09" stroke-width="3"/>
  <g transform="translate(35 35) scale(1.94)">
    <rect x="10" y="10" width="34" height="34" rx="7" fill="#E56A4D"/>
    <rect x="52" y="10" width="34" height="34" rx="7" fill="#E56A4D"/>
    <rect x="10" y="52" width="34" height="34" rx="7" fill="#E56A4D"/>
    <path d="M54 55
             C54 53.3 55.3 52 57 52 H81
             C84 52 86.6 54.6 85.8 57.5
             C84.2 63.5 82.2 70.5 78.8 76.8
             C75.2 83.5 69.5 89.5 63.5 90.6
             C59.2 91.4 56.2 88.2 55.2 82.5
             C54.4 77.6 54 68 54 55 Z"
          fill="#E56A4D" opacity="0.62"/>
    <path d="M60 60 C61 70 62 78 65 84" stroke="#211E1B" stroke-opacity="0.4" stroke-width="3" stroke-linecap="round"/>
    <path d="M87 68 q5 -2.5 6.5 -7.5" stroke="#D6A44C" stroke-width="3.5" stroke-linecap="round"/>
    <path d="M90 77 q6 -3 8 -9" stroke="#D6A44C" stroke-width="3.5" stroke-linecap="round" opacity="0.55"/>
  </g>
</svg>
